<svg id="Calque_1" data-name="Calque 1" xmlns="http://www.w3.org/2000/svg" viewBox="0 0 384 384"><defs><style>.cls-1{fill:#fff;}</style></defs><path class="cls-1" d="M930.81,348h183.75V732h-186c.21-.13.41-.35.63-.38,18.27-2.68,32.23-12.74,44.31-26,13.21-14.45,23-31.08,30.85-48.89,25.74-58.8,35.42-120.18,28.35-184-2.73-24.63-9.32-48.27-21.71-70-14.38-25.18-34.51-43.49-63-51.36C942.37,349.88,936.54,349.12,930.81,348Z" transform="translate(-730.56 -348)"/><path class="cls-1" d="M916.56,732h-186V348H914.31c-4.88.91-9.83,1.58-14.64,2.78-29.12,7.25-49.94,25.29-64.79,50.72-15.33,26.24-21.68,55.14-23.93,85C808,525.24,812,563.4,821.45,601c7.75,30.92,18.83,60.53,36.6,87.26,9.56,14.38,20.61,27.55,36.16,35.7C901.16,727.58,909.08,729.37,916.56,732Z" transform="translate(-730.56 -348)"/><path d="M916.56,732c-7.48-2.63-15.4-4.42-22.35-8.07-15.55-8.15-26.6-21.32-36.16-35.7-17.77-26.73-28.85-56.34-36.6-87.26C812,563.4,808,525.24,811,486.54c2.25-29.9,8.6-58.8,23.93-85,14.85-25.43,35.67-43.47,64.79-50.72,4.81-1.2,9.76-1.87,14.64-2.78h16.5c5.73,1.12,11.56,1.88,17.18,3.43,28.49,7.87,48.62,26.18,63,51.36,12.39,21.7,19,45.34,21.71,70,7.07,63.83-2.61,125.21-28.35,184-7.8,17.81-17.64,34.44-30.85,48.89-12.08,13.22-26,23.28-44.31,26-.22,0-.42.25-.63.38ZM828.2,470.74c1.07-.73,2-1.31,2.86-1.94,27.18-19.89,61.6-20.17,89.1-.59,2.14,1.53,3.32,1,5.14-.28,26.91-19.22,61.86-18.91,88.5.69,1,.71,2,1.34,3.13,2.11,0-30.73-25.91-81.37-47.62-92.48a31.8,31.8,0,0,1-2.41,3.07Q948.11,400.17,929.26,419c-4.85,4.85-8.56,4.83-13.45-.05L877.9,381c-.94-.93-1.93-1.82-2.84-2.68C847.32,397.56,831.57,438.12,828.2,470.74ZM981,669.88q4.61-8.94,9.62-18.71c-13.33-5.67-26-11.12-38.82-16.41-.77-.32-2.14.46-3.1,1-4,2.16-7.73,5.61-12,6.36a108.21,108.21,0,0,1-22.34,1.16c-6.54-.2-13-1.88-17.57-7.14-1.57-1.79-2.79-1.79-4.78-.93-11.79,5.09-23.64,10.06-35.46,15.09a15,15,0,0,0-2,1.32c3.27,6.31,6.46,12.46,9.8,18.92,1.58-1.08,2.64-2,3.82-2.6,5.9-3.23,11.71-6.66,17.78-9.54a7.32,7.32,0,0,1,10.71,5.23c.74,3.53-1.13,6.49-5.1,8.58-6.34,3.34-12.61,6.81-19.23,10.4,1.92,2.61,3.18,4.45,4.56,6.19,1.54,2,3.19,3.81,4.8,5.72,27.3-11.81,54.43-11.77,81.75,0l8.85-11.24a20.39,20.39,0,0,0-2.08-1.63c-5.74-3.25-11.46-6.55-17.27-9.66-2.92-1.55-4.76-3.75-4.75-7,0-3.1,1.46-5.89,4.49-6.68a11.34,11.34,0,0,1,7.15.47C967,662.11,973.76,666,981,669.88ZM938.09,524c1.14,6.31,2.32,11.78,3,17.31.35,2.62,1.53,3.86,3.82,4.87A60.28,60.28,0,0,0,1015.79,529c2.91-3.55,4.66-7.17,4.28-11.88a60.85,60.85,0,0,1,0-11.61c.81-7.1-2.18-12.33-6.81-17.35-20.67-22.45-55.63-25.81-80-7.44-1,.75-2.44,2.09-2.32,3,.74,5.46,1.86,10.87,2.88,16.46,1.73-1.6,3.1-2.86,4.45-4.13,20.47-19.38,54-15,68.93,8.87,2,3.3,2.31,6.39.28,9.8-9.74,16.32-30,24.81-48.49,20.4C951.36,533.23,944.7,529.53,938.09,524Zm-26.87-23.46c.94-5.29,1.53-10,2.67-14.57.68-2.71-.23-4-2.26-5.55C885.32,461,847.82,466.49,828,492.67a13.06,13.06,0,0,0-2.94,8.58c.17,6.49,0,13,.16,19.48a9,9,0,0,0,1.41,4.49C842.21,548.86,875,558,900.72,545.88c1-.46,2.41-1.13,2.57-1.92,1.33-6.33,2.41-12.71,3.7-19.8-2.35,1.75-3.91,3-5.54,4.11A45.06,45.06,0,0,1,838,515.38c-2.36-3.71-2.45-7.12,0-10.77,9-13.23,21.37-20.44,37.36-20.79C889.6,483.52,901.26,489.39,911.22,500.55Zm-11.1,61.84c-26.86,8.07-50.78,3.19-73.39-14.38,2.83,16.06,5.45,31,8,45.43.94.36,1.07.46,1.17.44q29.83-7.77,59.66-15.63a3.46,3.46,0,0,0,2.1-2.13C898.58,571.76,899.26,567.34,900.12,562.39Zm44.85,0c.83,4.58,1.73,8.58,2.21,12.63.28,2.31,1.35,3.08,3.44,3.61,11.35,2.89,22.67,5.94,34,8.92l25.63,6.72c2.69-15.29,5.31-30.19,8.13-46.24C995.8,565.57,971.88,570.44,945,562.38ZM956,370.17c-20.88-10.41-51.58-8.73-66.62.22l33.23,33.25Zm-5.21,224c.27,1.94.44,3.15.61,4.36.84,6.05,1.85,12.09,2.42,18.17a3.82,3.82,0,0,0,2.75,3.75c11.16,4.66,22.28,9.41,33.42,14.13,2,.86,4.1,1.67,6.62,2.7,3.23-9.62,6.35-18.9,9.57-28.52ZM848.33,636.81a5.3,5.3,0,0,0,1.31,0c13.34-5.6,26.68-11.17,40-16.91.79-.34,1.35-1.87,1.51-2.92.75-4.93,1.31-9.89,2-14.83.33-2.5.73-5,1.16-7.93L838.9,608.79C842.14,618.43,845.26,627.7,848.33,636.81Zm60.59-38.25H936.2L923,525l-.9,0Zm-56-88.43c13.52,16.45,37.24,13,46.18-.27C887.67,495.07,863.77,495.12,852.87,510.13ZM992.13,510c-12.13-16.14-36.88-13.65-46,.25C957.82,525,981.65,524.87,992.13,510ZM894,705.72c18.35,14.84,39.33,14.88,56.94-.06C932,699,913.3,699,894,705.72Zm28.81-91.89c-4.49,0-9,0-13.47,0-.93,0-2.22.16-2.69.75-2.68,3.37.42,12.59,4.69,12.94a212.5,212.5,0,0,0,21.57.23c3.86-.09,5.71-2.65,5.92-6.4.08-1.62,0-3.24.09-4.86.07-2.13-1-2.77-3-2.72C931.55,613.9,927.18,613.83,922.81,613.83Z" transform="translate(-730.56 -348)"/><path class="cls-1" d="M828.2,470.74c3.37-32.62,19.12-73.18,46.86-92.41.91.86,1.9,1.75,2.84,2.68l37.91,37.91c4.89,4.88,8.6,4.9,13.45.05q18.84-18.8,37.64-37.65a31.8,31.8,0,0,0,2.41-3.07c21.71,11.11,47.63,61.75,47.62,92.48-1.15-.77-2.17-1.4-3.13-2.11-26.64-19.6-61.59-19.91-88.5-.69-1.82,1.3-3,1.81-5.14.28-27.5-19.58-61.92-19.3-89.1.59C830.18,469.43,829.27,470,828.2,470.74ZM922.55,435a7.39,7.39,0,0,0-7.46,7.22,7.48,7.48,0,1,0,14.95,0A7.4,7.4,0,0,0,922.55,435Zm-34.46,5.23a7.61,7.61,0,0,0,7.44-7.72,7.48,7.48,0,0,0-14.95.46A7.63,7.63,0,0,0,888.09,440.18Zm69.11-14.93a7.5,7.5,0,0,0-7.61,7.5,7.48,7.48,0,1,0,14.95-.12A7.46,7.46,0,0,0,957.2,425.25Zm25.22,8.56a7.23,7.23,0,0,0,7.45,7.26,7.48,7.48,0,0,0,7.44-7.37,7.67,7.67,0,0,0-7.74-7.53A7.45,7.45,0,0,0,982.42,433.81Zm-119.72,0a7.44,7.44,0,0,0-7.15-7.64,7.67,7.67,0,0,0-7.74,7.53,7.48,7.48,0,0,0,7.44,7.37A7.25,7.25,0,0,0,862.7,433.81Z" transform="translate(-730.56 -348)"/><path class="cls-1" d="M981,669.88c-7.28-3.89-14.09-7.77-21.14-11.14a11.34,11.34,0,0,0-7.15-.47c-3,.79-4.49,3.58-4.49,6.68,0,3.28,1.83,5.48,4.75,7,5.81,3.11,11.53,6.41,17.27,9.66a20.39,20.39,0,0,1,2.08,1.63l-8.85,11.24c-27.32-11.79-54.45-11.83-81.75,0-1.61-1.91-3.26-3.77-4.8-5.72-1.38-1.74-2.64-3.58-4.56-6.19,6.62-3.59,12.89-7.06,19.23-10.4,4-2.09,5.84-5,5.1-8.58A7.32,7.32,0,0,0,886,658.37c-6.07,2.88-11.88,6.31-17.78,9.54-1.18.65-2.24,1.52-3.82,2.6-3.34-6.46-6.53-12.61-9.8-18.92a15,15,0,0,1,2-1.32c11.82-5,23.67-10,35.46-15.09,2-.86,3.21-.86,4.78.93,4.61,5.26,11,6.94,17.57,7.14a108.21,108.21,0,0,0,22.34-1.16c4.22-.75,8-4.2,12-6.36,1-.51,2.33-1.29,3.1-1,12.78,5.29,25.49,10.74,38.82,16.41Q985.64,661,981,669.88Zm-58.59-3.81a7.38,7.38,0,0,0,7.58-7.48,7.48,7.48,0,1,0-14.95.15A7.39,7.39,0,0,0,922.45,666.07Z" transform="translate(-730.56 -348)"/><path class="cls-1" d="M938.09,524c6.61,5.52,13.27,9.22,20.95,11,18.5,4.41,38.75-4.08,48.49-20.4,2-3.41,1.77-6.5-.28-9.8C992.36,481,958.79,476.61,938.32,496c-1.35,1.27-2.72,2.53-4.45,4.13-1-5.59-2.14-11-2.88-16.46-.12-.89,1.32-2.23,2.32-3,24.36-18.37,59.32-15,80,7.44,4.63,5,7.62,10.25,6.81,17.35a60.85,60.85,0,0,0,0,11.61c.38,4.71-1.37,8.33-4.28,11.88A60.28,60.28,0,0,1,945,546.19c-2.29-1-3.47-2.25-3.82-4.87C940.41,535.79,939.23,530.32,938.09,524Z" transform="translate(-730.56 -348)"/><path class="cls-1" d="M911.22,500.55c-10-11.16-21.62-17-35.83-16.73-16,.35-28.4,7.56-37.36,20.79-2.48,3.65-2.39,7.06,0,10.77a45.06,45.06,0,0,0,63.45,12.89c1.63-1.13,3.19-2.36,5.54-4.11-1.29,7.09-2.37,13.47-3.7,19.8-.16.79-1.59,1.46-2.57,1.92-25.7,12.11-58.51,3-74.05-20.66a9,9,0,0,1-1.41-4.49c-.17-6.49,0-13-.16-19.48a13.06,13.06,0,0,1,2.94-8.58c19.78-26.18,57.28-31.67,83.59-12.24,2,1.51,2.94,2.84,2.26,5.55C912.75,490.55,912.16,495.26,911.22,500.55Z" transform="translate(-730.56 -348)"/><path class="cls-1" d="M900.12,562.39c-.86,5-1.54,9.37-2.47,13.73a3.46,3.46,0,0,1-2.1,2.13q-29.81,7.9-59.66,15.63c-.1,0-.23-.08-1.17-.44-2.54-14.46-5.16-29.37-8-45.43C849.34,565.58,873.26,570.46,900.12,562.39Z" transform="translate(-730.56 -348)"/><path class="cls-1" d="M945,562.38c26.91,8.06,50.83,3.19,73.41-14.36-2.82,16.05-5.44,31-8.13,46.24l-25.63-6.72c-11.33-3-22.65-6-34-8.92-2.09-.53-3.16-1.3-3.44-3.61C946.7,571,945.8,567,945,562.38Z" transform="translate(-730.56 -348)"/><path class="cls-1" d="M956,370.17l-33.39,33.47-33.23-33.25C904.45,361.44,935.15,359.76,956,370.17Z" transform="translate(-730.56 -348)"/><path class="cls-1" d="M950.82,594.16l55.39,14.59c-3.22,9.62-6.34,18.9-9.57,28.52-2.52-1-4.58-1.84-6.62-2.7-11.14-4.72-22.26-9.47-33.42-14.13a3.82,3.82,0,0,1-2.75-3.75c-.57-6.08-1.58-12.12-2.42-18.17C951.26,597.31,951.09,596.1,950.82,594.16Z" transform="translate(-730.56 -348)"/><path class="cls-1" d="M848.33,636.81c-3.07-9.11-6.19-18.38-9.43-28l55.34-14.58c-.43,2.94-.83,5.43-1.16,7.93-.66,4.94-1.22,9.9-2,14.83-.16,1-.72,2.58-1.51,2.92-13.28,5.74-26.62,11.31-40,16.91A5.3,5.3,0,0,1,848.33,636.81Z" transform="translate(-730.56 -348)"/><path class="cls-1" d="M908.92,598.56,922.1,525l.9,0,13.2,73.61Z" transform="translate(-730.56 -348)"/><path class="cls-1" d="M852.87,510.13c10.9-15,34.8-15.06,46.18-.27C890.11,523.1,866.39,526.58,852.87,510.13Z" transform="translate(-730.56 -348)"/><path class="cls-1" d="M992.13,510c-10.48,14.9-34.31,15-46,.25C955.25,496.32,980,493.83,992.13,510Z" transform="translate(-730.56 -348)"/><path class="cls-1" d="M894,705.72c19.3-6.71,38-6.72,56.94-.06C933.33,720.6,912.35,720.56,894,705.72Z" transform="translate(-730.56 -348)"/><path class="cls-1" d="M922.81,613.83c4.37,0,8.74.07,13.1,0,2,0,3.08.59,3,2.72-.06,1.62,0,3.24-.09,4.86-.21,3.75-2.06,6.31-5.92,6.4a212.5,212.5,0,0,1-21.57-.23c-4.27-.35-7.37-9.57-4.69-12.94.47-.59,1.76-.73,2.69-.75C913.83,613.79,918.32,613.83,922.81,613.83Z" transform="translate(-730.56 -348)"/><path d="M922.55,435a7.4,7.4,0,0,1,7.49,7.21,7.48,7.48,0,1,1-14.95,0A7.39,7.39,0,0,1,922.55,435Z" transform="translate(-730.56 -348)"/><path d="M888.09,440.18a7.63,7.63,0,0,1-7.51-7.26,7.48,7.48,0,0,1,14.95-.46A7.61,7.61,0,0,1,888.09,440.18Z" transform="translate(-730.56 -348)"/><path d="M957.2,425.25a7.46,7.46,0,0,1,7.34,7.38,7.48,7.48,0,1,1-14.95.12A7.5,7.5,0,0,1,957.2,425.25Z" transform="translate(-730.56 -348)"/><path d="M982.42,433.81a7.45,7.45,0,0,1,7.15-7.64,7.67,7.67,0,0,1,7.74,7.53,7.48,7.48,0,0,1-7.44,7.37A7.23,7.23,0,0,1,982.42,433.81Z" transform="translate(-730.56 -348)"/><path d="M862.7,433.81a7.25,7.25,0,0,1-7.45,7.26,7.48,7.48,0,0,1-7.44-7.37,7.67,7.67,0,0,1,7.74-7.53A7.44,7.44,0,0,1,862.7,433.81Z" transform="translate(-730.56 -348)"/><path d="M922.45,666.07a7.39,7.39,0,0,1-7.37-7.33,7.48,7.48,0,1,1,14.95-.15A7.38,7.38,0,0,1,922.45,666.07Z" transform="translate(-730.56 -348)"/></svg>