<svg id="Calque_1" data-name="Calque 1" xmlns="http://www.w3.org/2000/svg" viewBox="0 0 384 384"><defs><style>.cls-1{fill:#fff;}</style></defs><path class="cls-1" d="M953.25,732H768V348H949.5l-10,1.47c-32.46,4.78-57.07,21-72.33,50.32C855.31,422.7,850.91,447.5,851.48,473c.22,9.73-2.25,16.67-9.09,23.63-11.06,11.26-19.89,24.32-25.13,39.52-4.91,14.25-2.49,26.91,8.92,36.78,7.59,6.57,16.24,11.92,24.57,17.61,2,1.34,3.17,2.53,3.71,5.05,2.52,11.57,5.11,23.15,8.22,34.58,2,7.44,4.94,14.65,7.6,21.91,1.07,2.9,3.33,4.37,6.51,3.68a5.09,5.09,0,0,0,4.35-5.33,12.38,12.38,0,0,0-1.17-4.28A296.12,296.12,0,0,1,865.66,595c-.41-2.12,0-3.31,2.11-4.38a145.84,145.84,0,0,0,14-7.86c20-13,35.72-29.59,42.65-53.16a3.73,3.73,0,0,1,1.25-2.15c4.84-2.72,9.75-5.3,15.21-8.23-.81,5.15-1.08,10.19-2.46,14.89-3.14,10.64-6.81,21.13-10.32,31.66-3,9,0,15.33,9,18.65l13,4.81a27.3,27.3,0,0,0,19.42.12c4.34-1.59,8.67-3.16,13-4.79,9.47-3.56,12.36-9.67,9.19-19.16-3.47-10.41-7.1-20.78-10.18-31.31-1.39-4.72-1.63-9.78-2.44-15,5,2.81,9.15,5,13.12,7.53a11,11,0,0,1,3.64,4.12c3.88,7.64,6.74,15.93,11.46,23,11,16.5,26.61,27.89,44.22,36.65,1.84.91,3.43,1.54,2.88,4.31-5,25.59-12.18,50.46-24.67,73.53-6,11-13,21.28-20.54,28.76L989.87,679l2.84-1.86a33.79,33.79,0,0,0,15.08-22.36c1.69-8.49-4.07-13.79-12.27-11.2a115.33,115.33,0,0,1-71.11,0c-8-2.54-13.79,2.6-12.25,10.9a33.58,33.58,0,0,0,15.17,22.7c1.12.74,2.24,1.45,2.68,1.73l-19,17.94c.73.95.08.53-.35-.06-6.39-8.75-12.89-17.43-19.07-26.33-2.9-4.17-5.56-5.62-8.79-3.69-3,1.81-3.54,5.07-1.12,9.14,2.75,4.61,5.5,9.24,8.58,13.62C901.82,706,915.83,719.66,935,727,940.83,729.25,947.14,730.37,953.25,732ZM999,624.92l-.77,1.27a15.06,15.06,0,0,1-2.46.81q-12,1.86-24,3.64c-3.53.52-5.73,2.79-5.56,5.86s2.84,5.47,6.48,5.33a41.71,41.71,0,0,0,7.08-.65c8.76-1.84,17.61-3.41,26.17-5.95a8.19,8.19,0,0,0,4.27-13.06c-6.27-8.22-13.63-15.32-23.38-19.37-9-3.73-17.55-3.06-25.43,3a15.81,15.81,0,0,1-1.45.89c-10.53-7.62-20.29-8.51-31.12-1.53a95.62,95.62,0,0,0-16.91,14.58c-6.51,6.83-4.7,14,4.48,16.36,10.19,2.67,20.75,4,31.19,5.68a5.49,5.49,0,0,0,6.31-5c.32-3.16-2-5.65-5.7-6.08-4.34-.51-8.71-.79-13-1.47-4.56-.72-9.07-1.8-13.6-2.72l-.4-1.55c5-3.7,9.62-7.89,14.92-11,6.91-4,12.75-2.64,18.21,3.15,4.64,4.92,6.83,4.91,11.56-.09,5.28-5.57,10.93-7,17.55-3.31C988.91,616.83,993.8,621.13,999,624.92Zm-85.26-53.63a5.43,5.43,0,0,0-5.49,5.44,5.64,5.64,0,0,0,5.63,5.77,5.81,5.81,0,0,0,5.55-5.54A5.6,5.6,0,0,0,913.72,571.29Zm98,5.55a5.44,5.44,0,0,0-5.38-5.55,5.57,5.57,0,0,0-5.8,5.56,5.78,5.78,0,0,0,5.44,5.64A5.62,5.62,0,0,0,1011.77,576.84ZM881.66,594.71a5.63,5.63,0,0,0-5.45,5.56,5.77,5.77,0,0,0,5.79,5.67,5.6,5.6,0,0,0,5.35-6A5.44,5.44,0,0,0,881.66,594.71Zm156.66,0a5.43,5.43,0,0,0-5.67,5.24,5.59,5.59,0,0,0,5.36,6,5.79,5.79,0,0,0,5.78-5.68A5.63,5.63,0,0,0,1038.32,594.71ZM904.15,590a5.76,5.76,0,0,0-5.5-5.55,5.6,5.6,0,0,0-5.6,5.76,5.38,5.38,0,0,0,5.81,5.45A5.49,5.49,0,0,0,904.15,590Zm122.8,0a5.63,5.63,0,0,0-5.43-5.56,5.72,5.72,0,0,0-5.67,5.75,5.46,5.46,0,0,0,5.48,5.46A5.38,5.38,0,0,0,1027,590Z" transform="translate(-768 -348)"/><path class="cls-1" d="M970.5,348H1152V732H966.75a13.9,13.9,0,0,1,2.12-.64,69.06,69.06,0,0,0,24.07-7.82c19.22-10.33,32.82-26.23,43.69-44.71,15.19-25.83,23.53-54.1,28.95-83.34a6,6,0,0,1,3.45-4.79c9.17-4.91,17.87-10.5,25.23-18a38,38,0,0,0,2.08-50.57c-1.9-2.3-4.36-3-7-1.48a5.24,5.24,0,0,0-2.47,7.06c1.19,3,2.83,5.84,4.05,8.83.9,2.21,1.45,4.56,2.35,7.47-19.45-3.41-32.84-13.26-40.69-30.16l12.1-15.24c3,3.49,6,6.88,8.91,10.27,2.79,3.21,6.2,3.8,8.79,1.53s2.67-5.37-.07-8.61c-3.63-4.28-7.31-8.55-11.24-12.56a8.06,8.06,0,0,1-2.47-6.61c.92-22.65-1.29-44.92-8.77-66.44-11.69-33.62-33.8-56.32-69.08-64.77C984.09,349.87,977.25,349.13,970.5,348Z" transform="translate(-768 -348)"/><path d="M970.5,348c6.75,1.13,13.59,1.87,20.23,3.46,35.28,8.45,57.39,31.15,69.08,64.77,7.48,21.52,9.69,43.79,8.77,66.44a8.06,8.06,0,0,0,2.47,6.61c3.93,4,7.61,8.28,11.24,12.56,2.74,3.24,2.65,6.35.07,8.61s-6,1.68-8.79-1.53c-3-3.39-5.88-6.78-8.91-10.27l-12.1,15.24c7.85,16.9,21.24,26.75,40.69,30.16-.9-2.91-1.45-5.26-2.35-7.47-1.22-3-2.86-5.83-4.05-8.83a5.24,5.24,0,0,1,2.47-7.06c2.66-1.48,5.12-.82,7,1.48a38,38,0,0,1-2.08,50.57c-7.36,7.46-16.06,13-25.23,18a6,6,0,0,0-3.45,4.79c-5.42,29.24-13.76,57.51-28.95,83.34-10.87,18.48-24.47,34.38-43.69,44.71a69.06,69.06,0,0,1-24.07,7.82,13.9,13.9,0,0,0-2.12.64h-13.5c-6.11-1.63-12.42-2.75-18.3-5-19.12-7.34-33.13-21-44.7-37.46-3.08-4.38-5.83-9-8.58-13.62-2.42-4.07-1.93-7.33,1.12-9.14,3.23-1.93,5.89-.48,8.79,3.69,6.18,8.9,12.68,17.58,19.07,26.33.43.59,1.08,1,.35.06l19-17.94c-.44-.28-1.56-1-2.68-1.73a33.58,33.58,0,0,1-15.17-22.7c-1.54-8.3,4.23-13.44,12.25-10.9a115.33,115.33,0,0,0,71.11,0c8.2-2.59,14,2.71,12.27,11.2a33.79,33.79,0,0,1-15.08,22.36L989.87,679,1009.21,697c7.52-7.48,14.57-17.73,20.54-28.76,12.49-23.07,19.65-47.94,24.67-73.53.55-2.77-1-3.4-2.88-4.31-17.61-8.76-33.21-20.15-44.22-36.65-4.72-7.06-7.58-15.35-11.46-23a11,11,0,0,0-3.64-4.12c-4-2.53-8.16-4.72-13.12-7.53.81,5.27,1,10.33,2.44,15,3.08,10.53,6.71,20.9,10.18,31.31,3.17,9.49.28,15.6-9.19,19.16-4.32,1.63-8.65,3.2-13,4.79a27.3,27.3,0,0,1-19.42-.12l-13-4.81c-9-3.32-12-9.67-9-18.65,3.51-10.53,7.18-21,10.32-31.66,1.38-4.7,1.65-9.74,2.46-14.89-5.46,2.93-10.37,5.51-15.21,8.23a3.73,3.73,0,0,0-1.25,2.15c-6.93,23.57-22.61,40.14-42.65,53.16a145.84,145.84,0,0,1-14,7.86c-2.13,1.07-2.52,2.26-2.11,4.38A296.12,296.12,0,0,0,880,646.15a12.38,12.38,0,0,1,1.17,4.28,5.09,5.09,0,0,1-4.35,5.33c-3.18.69-5.44-.78-6.51-3.68-2.66-7.26-5.57-14.47-7.6-21.91-3.11-11.43-5.7-23-8.22-34.58-.54-2.52-1.73-3.71-3.71-5.05-8.33-5.69-17-11-24.57-17.61-11.41-9.87-13.83-22.53-8.92-36.78,5.24-15.2,14.07-28.26,25.13-39.52,6.84-7,9.31-13.9,9.09-23.63-.57-25.5,3.83-50.3,15.74-73.21,15.26-29.35,39.87-45.54,72.33-50.32l10-1.47Zm80.83,77.6c-8.36.43-16.26.39-24,1.32-24.38,2.93-46.3,11.11-62.61,30.69-2.91,3.48-6.51,3.34-9.55-.19-22.9-26.57-53.52-31.7-86.53-31.55-1.34,6.07-2.6,11.8-4,18.09,10.25,0,19.84-1,29.14.2,24.89,3.25,42.65,16.51,52.08,40.15A84.12,84.12,0,0,1,949.09,538c-2.74,10.47-6.6,20.67-10.18,30.9-1,3-.41,4.3,2.53,5.23,4.39,1.4,8.58,3.58,13,4.6a24.52,24.52,0,0,0,10.58.12c4.82-1.1,9.37-3.36,14.1-5,2.48-.84,2.93-2.09,2.05-4.52-2.56-7-4.81-14.18-7.34-21.22-5.17-14.37-7.1-29.1-4.88-44.23,5-34,26-58.24,64.58-60.65,7.06-.44,14.16-.06,21.69-.06C1054,437.6,1052.74,431.94,1051.33,425.6Zm-80.87,10.82c23.44-16.85,49.29-21.69,76.79-21.87-7.13-17.31-17.33-31.37-33.08-41.39C994.65,390.52,979.81,410.88,970.46,436.42Zm-97.38-21.81c27.32.06,53,5,76.5,21.81-9.45-25.54-24.24-45.93-43.59-63.12C892.39,380.82,877.44,399.56,873.08,414.61Zm131-47.57c-7.36-2-13.87-3.89-20.46-5.47-.79-.19-2.45,1.08-2.9,2-3.82,8.24-7.68,16.48-11.06,24.9-2.53,6.3-4.87,8.95-9.54,9s-7.23-2.52-9.67-8.8c-2.94-7.54-6.15-15-9.57-22.3-2.58-5.51-2.86-5.58-8.68-4.07-5.18,1.35-10.24,3.15-16,5,19.75,18.42,34.3,39.11,43.84,64.38C969.54,406.24,984.21,385.6,1004.07,367Zm51.76,122.66c-7.17-7.39-16.74-12-29.26-13.13-21.84-1.9-35.69,5.94-44.55,25.28a4.33,4.33,0,0,0,.29,3.82c5.66,6.2,12.35,10.86,20.74,12.63C1023.2,522.56,1047.15,509.64,1055.83,489.7ZM938.9,504.23c-5.28-14.66-15.68-24.25-29.49-27a53.78,53.78,0,0,0-28.42,2,41.69,41.69,0,0,0-16.87,10.4C875.75,515.68,915.44,533.17,938.9,504.23ZM826.29,555.57c3.41,4.1,6.33,7.56,9.2,11.06,1.66,2,3.51,2.15,6,1.43,21-6.2,36.22-19.91,48.59-37.31.62-.87,1.09-1.84,1.59-2.7l-14.9-7C861.91,543.55,851.14,551.08,826.29,555.57Zm266.51-.21q-33.88-4.87-49.45-34.42L1028,528.27c3,3.87,5.61,7.67,8.59,11.17,11.39,13.35,24.82,23.77,42,28.55,1.24.35,3.1.8,3.87.19C1086.79,564.79,1090.58,560.89,1092.8,555.36ZM930.68,712.89c.92-1.19,1.6-2,2.26-2.93a63.63,63.63,0,0,1,22.47-18.82c3.19-1.63,6.22-1.93,9.18.09,5.24,3.56,10.64,7,15.49,11,3.47,2.9,6.16,6.76,9.45,10.48l9.62-6.42a80.88,80.88,0,0,0-22-21.17,5.11,5.11,0,0,0-3.46-.51,75.71,75.71,0,0,1-27.55,0A4.76,4.76,0,0,0,943,685a81.14,81.14,0,0,0-22.21,21.34ZM827.41,543.45c14.9.27,34.24-14.25,39.86-29.76l-11.79-14.83C841.5,512.33,827.87,534,827.41,543.45ZM924,655.27c2.11,6.42,5.83,10.79,11.12,13.42,16.48,8.19,33.18,8.2,49.66,0a20.78,20.78,0,0,0,11.11-13.43A128.23,128.23,0,0,1,924,655.27Zm145.27-78.14c-3.79-1.82-7.68-3.47-11.38-5.49-16.61-9-29.44-22.09-39.46-38-1.7-2.68-3.42-4-6.55-3.38a33,33,0,0,1-5,0c3.41,6.1,6,11.74,9.49,16.77,9.79,14.17,23.15,24.27,38.27,32.2C1061.41,582.86,1063.24,582.61,1069.26,577.13ZM850.57,577c6.16,5.59,8.09,5.87,14.85,2.27,2.42-1.29,4.86-2.57,7.19-4,16.33-10.13,30.15-22.63,38.09-40.63.56-1.27.95-2.62,1.53-4.24a20.6,20.6,0,0,1-3.22,0c-3.82-.73-5.81,1.08-8,4.17a184.48,184.48,0,0,1-16,19.79A90.37,90.37,0,0,1,850.57,577Zm12.36-101.23c18.53-11.66,38.24-13.74,59.43-6.48C908,454.44,881.72,451.41,862.93,456Zm135-6.82q31.3-10.53,59,6.71V455.29C1035.19,452.84,1014.83,453.67,997.91,468.91ZM978.59,717.54a48.1,48.1,0,0,0-16.93-15.12,3.87,3.87,0,0,0-3.09-.1,48.18,48.18,0,0,0-17.16,15.16C953.86,721.88,965.91,721.72,978.59,717.54Zm-28.25-358c3.36,7.3,6.44,14,9.68,21.07l9.58-21.07Z" transform="translate(-768 -348)"/><path d="M999,624.92c-5.18-3.79-10.07-8.09-15.61-11.24-6.62-3.74-12.27-2.26-17.55,3.31-4.73,5-6.92,5-11.56.09-5.46-5.79-11.3-7.17-18.21-3.15-5.3,3.09-10,7.28-14.92,11l.4,1.55c4.53.92,9,2,13.6,2.72,4.31.68,8.68,1,13,1.47,3.72.43,6,2.92,5.7,6.08a5.49,5.49,0,0,1-6.31,5c-10.44-1.63-21-3-31.19-5.68-9.18-2.41-11-9.53-4.48-16.36a95.62,95.62,0,0,1,16.91-14.58c10.83-7,20.59-6.09,31.12,1.53a15.81,15.81,0,0,0,1.45-.89c7.88-6.06,16.45-6.73,25.43-3,9.75,4.05,17.11,11.15,23.38,19.37a8.19,8.19,0,0,1-4.27,13.06c-8.56,2.54-17.41,4.11-26.17,5.95a41.71,41.71,0,0,1-7.08.65c-3.64.14-6.3-2.13-6.48-5.33s2-5.34,5.56-5.86q12-1.77,24-3.64a15.06,15.06,0,0,0,2.46-.81Z" transform="translate(-768 -348)"/><path d="M913.72,571.29a5.6,5.6,0,0,1,5.69,5.67,5.81,5.81,0,0,1-5.55,5.54,5.64,5.64,0,0,1-5.63-5.77A5.43,5.43,0,0,1,913.72,571.29Z" transform="translate(-768 -348)"/><path d="M1011.77,576.84a5.62,5.62,0,0,1-5.74,5.65,5.78,5.78,0,0,1-5.44-5.64,5.57,5.57,0,0,1,5.8-5.56A5.44,5.44,0,0,1,1011.77,576.84Z" transform="translate(-768 -348)"/><path d="M881.66,594.71a5.44,5.44,0,0,1,5.69,5.23,5.6,5.6,0,0,1-5.35,6,5.77,5.77,0,0,1-5.79-5.67A5.63,5.63,0,0,1,881.66,594.71Z" transform="translate(-768 -348)"/><path d="M1038.32,594.71a5.63,5.63,0,0,1,5.47,5.55,5.79,5.79,0,0,1-5.78,5.68,5.59,5.59,0,0,1-5.36-6A5.43,5.43,0,0,1,1038.32,594.71Z" transform="translate(-768 -348)"/><path d="M904.15,590a5.49,5.49,0,0,1-5.29,5.66,5.38,5.38,0,0,1-5.81-5.45,5.6,5.6,0,0,1,5.6-5.76A5.76,5.76,0,0,1,904.15,590Z" transform="translate(-768 -348)"/><path d="M1027,590a5.38,5.38,0,0,1-5.62,5.65,5.46,5.46,0,0,1-5.48-5.46,5.72,5.72,0,0,1,5.67-5.75A5.63,5.63,0,0,1,1027,590Z" transform="translate(-768 -348)"/><path class="cls-1" d="M1051.33,425.6c1.41,6.34,2.68,12,3.93,17.59-7.53,0-14.63-.38-21.69.06C995,445.66,974,469.85,969,503.9c-2.22,15.13-.29,29.86,4.88,44.23,2.53,7,4.78,14.19,7.34,21.22.88,2.43.43,3.68-2.05,4.52-4.73,1.6-9.28,3.86-14.1,5a24.52,24.52,0,0,1-10.58-.12c-4.46-1-8.65-3.2-13-4.6-2.94-.93-3.58-2.24-2.53-5.23,3.58-10.23,7.44-20.43,10.18-30.9a84.12,84.12,0,0,0-3.26-53.67c-9.43-23.64-27.19-36.9-52.08-40.15-9.3-1.22-18.89-.2-29.14-.2,1.39-6.29,2.65-12,4-18.09,33-.15,63.63,5,86.53,31.55,3,3.53,6.64,3.67,9.55.19,16.31-19.58,38.23-27.76,62.61-30.69C1035.07,426,1043,426,1051.33,425.6Z" transform="translate(-768 -348)"/><path class="cls-1" d="M970.46,436.42c9.35-25.54,24.19-45.9,43.71-63.26,15.75,10,25.95,24.08,33.08,41.39C1019.75,414.73,993.9,419.57,970.46,436.42Z" transform="translate(-768 -348)"/><path class="cls-1" d="M873.08,414.61c4.36-15.05,19.31-33.79,32.91-41.31,19.35,17.19,34.14,37.58,43.59,63.12C926.13,419.63,900.4,414.67,873.08,414.61Z" transform="translate(-768 -348)"/><path class="cls-1" d="M1004.07,367c-19.86,18.56-34.53,39.2-44.05,64.64-9.54-25.27-24.09-46-43.84-64.38,5.77-1.81,10.83-3.61,16-5,5.82-1.51,6.1-1.44,8.68,4.07,3.42,7.32,6.63,14.76,9.57,22.3,2.44,6.28,4.9,8.85,9.67,8.8s7-2.7,9.54-9c3.38-8.42,7.24-16.66,11.06-24.9.45-1,2.11-2.23,2.9-2C990.2,363.15,996.71,365,1004.07,367Z" transform="translate(-768 -348)"/><path class="cls-1" d="M1055.83,489.7c-8.68,19.94-32.63,32.86-52.78,28.6-8.39-1.77-15.08-6.43-20.74-12.63a4.33,4.33,0,0,1-.29-3.82c8.86-19.34,22.71-27.18,44.55-25.28C1039.09,477.67,1048.66,482.31,1055.83,489.7Zm-48.7,20.77c12.31-.28,23.08-4.05,31.93-12.73,3.26-3.19,3.65-6.65,1.14-9.13s-5.23-1.83-8.93.8c-4.4,3.13-9,6.81-14.06,7.95-6.24,1.41-13,.68-19.56.45-3.95-.14-6.44.95-7.17,4.24s1,5.93,4.85,6.72S1003.2,509.93,1007.13,510.47Z" transform="translate(-768 -348)"/><path class="cls-1" d="M938.9,504.23c-23.46,28.94-63.15,11.45-74.78-14.58A41.69,41.69,0,0,1,881,479.25a53.78,53.78,0,0,1,28.42-2C923.22,480,933.62,489.57,938.9,504.23Zm-26,6.24c3.93-.54,7.92-.89,11.8-1.69s5.55-3.51,4.86-6.71-3.25-4.89-7.14-4.16c-13.14,2.47-25,.57-34.86-9.37a5.19,5.19,0,0,0-7.72.07c-2.12,2.09-2.21,5.23-.13,7.76a26.31,26.31,0,0,0,2.63,2.65C891,506.84,901.26,510.19,912.85,510.47Z" transform="translate(-768 -348)"/><path class="cls-1" d="M826.29,555.57c24.85-4.49,35.62-12,50.45-34.57l14.9,7c-.5.86-1,1.83-1.59,2.7-12.37,17.4-27.57,31.11-48.59,37.31-2.46.72-4.31.59-6-1.43C832.62,563.13,829.7,559.67,826.29,555.57Z" transform="translate(-768 -348)"/><path class="cls-1" d="M1092.8,555.36c-2.22,5.53-6,9.43-10.29,12.82-.77.61-2.63.16-3.87-.19-17.22-4.78-30.65-15.2-42-28.55-3-3.5-5.62-7.3-8.59-11.17l15.34-7.33Q1058.89,550.43,1092.8,555.36Z" transform="translate(-768 -348)"/><path class="cls-1" d="M930.68,712.89l-9.85-6.58A81.14,81.14,0,0,1,943,685a4.76,4.76,0,0,1,3.14-.34,75.71,75.71,0,0,0,27.55,0,5.11,5.11,0,0,1,3.46.51,80.88,80.88,0,0,1,22,21.17l-9.62,6.42c-3.29-3.72-6-7.58-9.45-10.48-4.85-4-10.25-7.45-15.49-11-3-2-6-1.72-9.18-.09A63.63,63.63,0,0,0,932.94,710C932.28,710.84,931.6,711.7,930.68,712.89Z" transform="translate(-768 -348)"/><path class="cls-1" d="M827.41,543.45c.46-9.43,14.09-31.12,28.07-44.59l11.79,14.83C861.65,529.2,842.31,543.72,827.41,543.45Z" transform="translate(-768 -348)"/><path class="cls-1" d="M924,655.27a128.23,128.23,0,0,0,71.89,0,20.78,20.78,0,0,1-11.11,13.43c-16.48,8.15-33.18,8.14-49.66,0C929.82,666.06,926.1,661.69,924,655.27Z" transform="translate(-768 -348)"/><path class="cls-1" d="M1069.26,577.13c-6,5.48-7.85,5.73-14.62,2.18-15.12-7.93-28.48-18-38.27-32.2-3.48-5-6.08-10.67-9.49-16.77a33,33,0,0,0,5,0c3.13-.58,4.85.7,6.55,3.38,10,15.87,22.85,28.92,39.46,38C1061.58,573.66,1065.47,575.31,1069.26,577.13Z" transform="translate(-768 -348)"/><path class="cls-1" d="M850.57,577A90.37,90.37,0,0,0,885,554.28a184.48,184.48,0,0,0,16-19.79c2.2-3.09,4.19-4.9,8-4.17a20.6,20.6,0,0,0,3.22,0c-.58,1.62-1,3-1.53,4.24-7.94,18-21.76,30.5-38.09,40.63-2.33,1.45-4.77,2.73-7.19,4C858.66,582.83,856.73,582.55,850.57,577Z" transform="translate(-768 -348)"/><path class="cls-1" d="M862.93,475.73V456c18.79-4.54,45.05-1.51,59.43,13.3C901.17,462,881.46,464.07,862.93,475.73Z" transform="translate(-768 -348)"/><path class="cls-1" d="M997.91,468.91c16.92-15.24,37.28-16.07,59-13.62v20.33Q1029.2,458.37,997.91,468.91Z" transform="translate(-768 -348)"/><path class="cls-1" d="M978.59,717.54c-12.68,4.18-24.73,4.34-37.18-.06a48.18,48.18,0,0,1,17.16-15.16,3.87,3.87,0,0,1,3.09.1A48.1,48.1,0,0,1,978.59,717.54Z" transform="translate(-768 -348)"/><path class="cls-1" d="M950.34,359.52H969.6L960,380.59C956.78,373.54,953.7,366.82,950.34,359.52Z" transform="translate(-768 -348)"/><path d="M1007.13,510.47c-3.93-.54-7.92-.89-11.8-1.7s-5.55-3.52-4.85-6.72,3.22-4.38,7.17-4.24c6.53.23,13.32,1,19.56-.45,5-1.14,9.66-4.82,14.06-7.95,3.7-2.63,6.41-3.31,8.93-.8s2.12,5.94-1.14,9.13C1030.21,506.42,1019.44,510.19,1007.13,510.47Z" transform="translate(-768 -348)"/><path d="M912.85,510.47c-11.59-.28-21.89-3.63-30.56-11.45a26.31,26.31,0,0,1-2.63-2.65c-2.08-2.53-2-5.67.13-7.76a5.19,5.19,0,0,1,7.72-.07c9.85,9.94,21.72,11.84,34.86,9.37,3.89-.73,6.44.87,7.14,4.16s-1.07,5.92-4.86,6.71S916.78,509.93,912.85,510.47Z" transform="translate(-768 -348)"/></svg>