<svg id="Calque_1" data-name="Calque 1" xmlns="http://www.w3.org/2000/svg" viewBox="0 0 384 384"><defs><style>.cls-1{fill:#fefefe;}.cls-2{fill:#020202;}.cls-3{fill:#1b4ed3;}.cls-4{fill:#040507;}.cls-5{fill:#77767b;}.cls-6{fill:#9c5d28;}.cls-7{fill:#6c8eea;}.cls-8{fill:#7b3f2b;}.cls-9{fill:#cf5472;}.cls-10{fill:#e4b983;}.cls-11{fill:#ecd1b0;}.cls-12{fill:#5ea4ad;}.cls-13{fill:#1a4dd3;}.cls-14{fill:#f2e366;}.cls-15{fill:#57565a;}.cls-16{fill:#f3e366;}.cls-17{fill:#bf1d43;}.cls-18{fill:#565659;}.cls-19{fill:#78d5a6;}.cls-20{fill:#77767a;}.cls-21{fill:#79d6a6;}.cls-22{fill:#7b3f2c;}.cls-23{fill:#e3a74a;}.cls-24{fill:#f8f8f8;}.cls-25{fill:#dfa64a;}.cls-26{fill:#e0a74a;}.cls-27{fill:#793d2b;}.cls-28{fill:#fbfbfb;}.cls-29{fill:#040303;}</style></defs><path class="cls-1" d="M895,332.4h177.4v384h-384v-384H865.05a9.78,9.78,0,0,1-2.21.8A197.27,197.27,0,0,0,813.64,345c-4.25,1.62-6.56,3.64-6.33,8.44.15,3.2-.54,6.44-.87,9.66-3.19,31.11-6.21,62.24-9.73,93.31-.6,5.22.25,8.89,4.43,11.82,5.7,4,7.07,9.35,7,16.3q-.45,68.82,0,137.64c.16,21.86,7.91,41.11,22.53,57.47,13.68,15.3,30.83,25.83,48.78,35.2a4.19,4.19,0,0,0,3.3-.38c5.13-2.8,10.22-5.68,15.23-8.69,12.64-7.58,24.77-15.85,34.48-27.17a67.28,67.28,0,0,0,11.93-19l-4.56-2.44q2-4.93,3.94-9.89l5.29,1.42c1.06-4,2-7.72,3.09-11.63l-5.33-1.44q.66-5.49,1.31-11H954v-8.46c0-42.89.28-85.79-.22-128.68-.11-9.08,1.56-16.23,9.05-21.53,2.33-1.64,2.62-3.78,2.3-6.51-1.52-13.37-2.86-26.76-4.22-40.15q-3.51-34.39-6.94-68.8a4.55,4.55,0,0,0-3.3-4.28,181.37,181.37,0,0,0-41.95-11.64C904.13,333.88,899.57,333.12,895,332.4Z" transform="translate(-688.4 -332.4)"/><path class="cls-2" d="M939.86,657.13l4.56,2.44a67.28,67.28,0,0,1-11.93,19c-9.71,11.32-21.84,19.59-34.48,27.17-5,3-10.1,5.89-15.23,8.69a4.19,4.19,0,0,1-3.3.38c-18-9.37-35.1-19.9-48.78-35.2-14.62-16.36-22.37-35.61-22.53-57.47q-.49-68.82,0-137.64c.05-6.95-1.32-12.3-7-16.3-4.18-2.93-5-6.6-4.43-11.82,3.52-31.07,6.54-62.2,9.73-93.31.33-3.22,1-6.46.87-9.66-.23-4.8,2.08-6.82,6.33-8.44a197.27,197.27,0,0,1,49.2-11.82,9.78,9.78,0,0,0,2.21-.8h30c4.57.72,9.13,1.48,13.71,2.15a181.37,181.37,0,0,1,41.95,11.64,4.55,4.55,0,0,1,3.3,4.28q3.39,34.41,6.94,68.8c1.36,13.39,2.7,26.78,4.22,40.15.32,2.73,0,4.87-2.3,6.51-7.49,5.3-9.16,12.45-9.05,21.53.5,42.89.22,85.79.22,128.68v8.46h-5.82l-4.49-.21a13,13,0,0,1-1-3.26c-.09-4.48.22-9-.07-13.44a9.26,9.26,0,0,0-2.2-5.46c-11.59-11.84-23.35-23.51-35.07-35.21-.67-.67-1.43-1.24-2.9-2.5L879.91,587.6l-21.55-21.68-28.55,27.72c-3.13,3-6.31,6-9.33,9.15a5,5,0,0,0-1.2,3c-.85,13.67.33,27.13,4.57,40.21,2.1,6.49,4.8,12.7,8.6,17.52L845.89,650l-7.79-5.52-5.21-7.14-2.58-13.79c.08-.62.18-1.24.24-1.86,1.38-14.37,12.39-25,26.74-25.17,15.71-.24,31.42-.13,47.13,0a25.67,25.67,0,0,1,20.44,10,29.13,29.13,0,0,1-1.46,38L915.72,650l13.61,13.7c1.61-2.71,3.4-5.75,5.25-8.87ZM874,685.67,866.19,694c4.66,2.76,8.88,5.33,13.2,7.75a3.25,3.25,0,0,0,2.71,0c4.42-2.46,8.74-5.08,13.47-7.87l-7.22-7.56-7.42-8.54ZM913.59,455c-1.7,3.73-3.39,7.45-5.15,11.33a12.18,12.18,0,0,0,2.13.65c11.09,0,22.18.1,33.26,0,3.86,0,9.71-7.19,9.41-11.18-.23-2.84-.55-5.68-.67-8.53-.09-2-.92-2.8-3-2.76-5.34.11-10.68,0-16,.05A23.56,23.56,0,0,0,913.59,455Zm-90.41-32.71H811.65l-1.11,10.82h11.92c.86.06,1.73.18,2.59.16,17.09-.46,29.14,7.19,36.36,22.6.92,3.57,1.83,7.14,2.8,10.94h11.3c-1.23-4.21-2.36-8.06-3.48-11.92C865.73,435.41,844.37,421.15,823.18,422.33ZM848,455a56.77,56.77,0,0,0-4.23-4.66c-6.59-5.85-14.57-6.3-22.8-5.6a78.44,78.44,0,0,0-8.94,0,4,4,0,0,0-2.83,2.41,58.14,58.14,0,0,0-1,8.86c-.26,4.31,6.13,11,10.47,11.05,3.81,0,7.62,0,11.63,0,.11,2.35.19,4.19.27,6,0,1.67-.08,3.35-.11,5H819.62v30.17l11-6.34c18.47-5.83,31,2.67,40.8,15.47-10.37,12.72-22.66,20.48-39.89,15.4l-12-6.62V587l.78.56L858.91,549l22.55,22.68c7.33-7.4,14.65-14.78,23-23.23l38.18,38.19v-62c-19.83,17.28-40.82,9.5-52.77-7.72,6.89-7.45,13.73-14.86,24.62-16.43s19.93,2,28,9.15V478.32c-7.78,0-15.36.76-22.71-.18-10-1.28-16.55,2.57-22.31,10.3-4.8,6.44-10.77,12-17,18.83a29.59,29.59,0,0,0-2.26-3.49c-6.6-7.32-13.3-14.54-19.84-21.91-2.09-2.36-4.12-4.06-7.59-3.62a69.92,69.92,0,0,1-8.71.07l-.36-5.87.42-5.46h11.37C851.35,462.43,849.66,458.73,848,455Zm51.72,1.7c7.63-16.77,20.71-24.41,39-23.44,4,.22,8.1,0,12.33,0-.42-4-.78-7.42-1.16-11-10.32-.22-20.42-.86-30.06,3-14.78,5.87-25.29,15.92-30.2,31.34l-2.84,10.16h10.73ZM886,652.82l-9.77,0c-4.69-.05-9.37-.18-14.06-.1A4.62,4.62,0,0,0,859.3,654c-4.14,4-8.16,8.23-12.23,12.36l-7.68,7.39,16.66,14.61L881,661.22l24.59,26.94L913,682l9.19-8.34c-6.94-6.88-13.35-13.31-19.87-19.62a5.28,5.28,0,0,0-3.25-1.3C894.71,652.64,890.36,652.77,886,652.82Zm-27.67-44.93a16.54,16.54,0,0,0-17,16.18,16.79,16.79,0,0,0,16.49,17.28c15.2.28,30.41.31,45.61,0,10.39-.21,16.9-7.74,16.22-17.79,0-8.32-6.07-15.44-14.35-15.63C889.67,607.58,874,607.87,858.34,607.89ZM848.68,405l-5.13,8.7c17.29,6,29.41,16.88,37.44,32.78l5.87-9.88a65.34,65.34,0,0,1,31.47-22.8c-3.36-5.27-6.34-9.93-9.35-14.66l3.34-3.8,4.07-3.55c5.29,4.78,8.65,10.66,11.49,16.94.43,1,1.48,2.31,2.29,2.33,6.08.2,12.16.11,18.55.11-1.84-18.16-3.57-35.73-5.52-53.27a5.34,5.34,0,0,0-3-3.51c-24.91-9.32-50.68-12.94-77.08-9.78-11,1.33-21.86,4.55-32.77,6.92a59.16,59.16,0,0,1-7.14,2.07c-4.4.74-5.13,3.66-5.39,7.43-.46,6.55-1.3,13.08-2,19.63-1,10-2,19.94-3,30.17h11.78a36.1,36.1,0,0,0,6,.16,4.16,4.16,0,0,0,2.88-2c9-20.68,25.05-30.89,47.16-32a42,42,0,0,1,24.89,6.52l-2.37,4.88-3,4.52C879,384.51,859.21,389.16,848.68,405Zm7,112.23a19.36,19.36,0,0,0-27.79-.12C834.86,525,847.57,525.18,855.67,517.24Zm49.8,0c8.62,7.92,21.28,7.76,27.8-.13C925.88,509.35,913.57,509.34,905.47,517.25ZM870.24,478.4,881,490l10.35-11.61Z" transform="translate(-688.4 -332.4)"/><path class="cls-3" d="M939.86,657.13l-5.28-2.26c-1.85,3.12-3.64,6.16-5.25,8.87L915.72,650l7.68-5.51,6,6.23c6.53-8.26,11.57-16.69,14.32-26.37l4.49.21-1.32,11-5.73-.72c-.94,3.61-1.79,6.89-2.66,10.22l5.34,2.15Q941.84,652.19,939.86,657.13Z" transform="translate(-688.4 -332.4)"/><path class="cls-4" d="M943.8,647.24l-5.34-2.15c.87-3.33,1.72-6.61,2.66-10.22l5.73.72,5.33,1.44c-1,3.91-2,7.66-3.09,11.63Z" transform="translate(-688.4 -332.4)"/><path class="cls-5" d="M903.21,388.47l2.37-4.88a42,42,0,0,0-24.89-6.52c-22.11,1.08-38.2,11.29-47.16,32a4.16,4.16,0,0,1-2.88,2,36.1,36.1,0,0,1-6-.16c.23-2,.49-3.91.68-5.87,1-10.55,2-21.11,3.08-31.65.08-.72,1-1.36,1.56-2h11v-11H830l.39-8.75c10.91-2.36,21.73-5.58,32.77-6.91,26.4-3.16,52.17.46,77.08,9.78a5.34,5.34,0,0,1,3,3.51c1.95,17.54,3.68,35.11,5.52,53.27-6.39,0-12.47.09-18.55-.11-.81,0-1.86-1.37-2.29-2.33-2.84-6.28-6.2-12.16-11.49-16.94l-4.07,3.55Zm-39.46-17.28v-10.9h-11v10.9Z" transform="translate(-688.4 -332.4)"/><path class="cls-6" d="M831.53,532.81c17.23,5.08,29.52-2.68,39.89-15.4-9.81-12.8-22.33-21.3-40.8-15.47q-.07-11.93-.16-23.83c0-1.67.07-3.35.11-5l11.08-.64.36,5.87a69.92,69.92,0,0,0,8.71-.07c3.47-.44,5.5,1.26,7.59,3.62,6.54,7.37,13.24,14.59,19.84,21.91a29.59,29.59,0,0,1,2.26,3.49c6.27-6.84,12.24-12.39,17-18.83,5.76-7.73,12.32-11.58,22.31-10.3,7.35.94,14.93.18,22.71.18v31.29c-8-7.18-17.17-10.71-28-9.15s-17.73,9-24.62,16.43c12,17.22,32.94,25,52.77,7.72v48a24.65,24.65,0,0,1-3.24-2.32q-16.57-16.49-33.09-33c-1-.94-1.93-1.84-3.34-3.18l-22.53,23.07-22.26-23L844.67,547.8l-14,14.12c0-9.93,0-18.73,0-27.54C830.69,533.86,831.24,533.33,831.53,532.81Z" transform="translate(-688.4 -332.4)"/><path class="cls-7" d="M943.68,624.39c-2.75,9.68-7.79,18.11-14.32,26.37l-6-6.23a29.13,29.13,0,0,0,1.46-38,25.67,25.67,0,0,0-20.44-10c-15.71-.11-31.42-.22-47.13,0-14.35.21-25.36,10.8-26.74,25.17-.06.62-.16,1.24-.24,1.85-.4-2.18-1.16-4.36-1.14-6.54.07-7.8.4-15.59.64-23.39l28.55-27.72,21.55,21.68,22.57-23.08c1.47,1.26,2.23,1.83,2.9,2.5,11.72,11.7,23.48,23.37,35.07,35.21a9.26,9.26,0,0,1,2.2,5.46c.29,4.46,0,9,.07,13.44A13,13,0,0,0,943.68,624.39Z" transform="translate(-688.4 -332.4)"/><path class="cls-8" d="M831.53,532.81c-.29.52-.84,1.05-.84,1.57-.05,8.81,0,17.61,0,27.54l14-14.12,13.52-13.66,22.26,23L903,534.06c1.41,1.34,2.39,2.24,3.34,3.18q16.54,16.53,33.09,33a24.65,24.65,0,0,0,3.24,2.32v14l-38.18-38.19c-8.36,8.45-15.68,15.83-23,23.23L858.91,549l-38.59,38.62-.78-.56V526.19Z" transform="translate(-688.4 -332.4)"/><path class="cls-9" d="M903.21,388.47l9.11,6.88-3.34,3.8c3,4.73,6,9.39,9.35,14.66a65.34,65.34,0,0,0-31.47,22.8,13.64,13.64,0,0,1-1.28-1.79c-7.76-15.57-19.86-25.74-36.9-29.81,10.53-15.85,30.28-20.5,51.54-12Z" transform="translate(-688.4 -332.4)"/><path class="cls-10" d="M919.68,623.56c.68,10.05-5.83,17.58-16.22,17.79-15.2.31-30.41.28-45.61,0a16.79,16.79,0,0,1-16.49-17.28,16.54,16.54,0,0,1,17-16.18c-2.21,4.47-4.92,8.76-6.49,13.44s1.41,8.14,6.37,8.24a24.64,24.64,0,0,0,3.87.59c13.66.07,27.33.07,41,.09C909.53,630.28,914.74,627.28,919.68,623.56Z" transform="translate(-688.4 -332.4)"/><path class="cls-11" d="M919.68,623.56c-4.94,3.72-10.15,6.72-16.6,6.69V619.09H858.22v10.48c-5-.1-8-3.47-6.37-8.24s4.28-9,6.49-13.44c15.67,0,31.33-.31,47,0C913.61,608.12,919.63,615.24,919.68,623.56Z" transform="translate(-688.4 -332.4)"/><path class="cls-12" d="M876.24,652.84l9.77,0c2.88,3.23,5.7,6.51,8.65,9.68,6.07,6.54,12.22,13,18.33,19.5l-7.44,6.16L881,661.22l-24.91,27.12-16.66-14.61,7.68-7.39,8.19,9.66Z" transform="translate(-688.4 -332.4)"/><path class="cls-13" d="M829.81,593.64c-.24,7.8-.57,15.59-.64,23.39,0,2.18.74,4.36,1.14,6.54l2.58,13.8c.67,3,1.35,6.07,2.12,9.56l3.09-2.42,7.79,5.52-13.44,13.44c-3.8-4.82-6.5-11-8.6-17.52-4.24-13.08-5.42-26.54-4.57-40.21a5,5,0,0,1,1.2-3C823.5,599.65,826.68,596.67,829.81,593.64Z" transform="translate(-688.4 -332.4)"/><path class="cls-14" d="M889.62,456.61c4.91-15.42,15.42-25.47,30.2-31.34,9.64-3.82,19.74-3.18,30.06-3,.38,3.59.74,7,1.16,11-4.23,0-8.29.19-12.33,0-18.32-1-31.4,6.67-39,23.44Z" transform="translate(-688.4 -332.4)"/><path class="cls-15" d="M830,371.29c-.54.67-1.48,1.31-1.56,2-1.09,10.54-2.06,21.1-3.08,31.65-.19,2-.45,3.91-.68,5.87H812.91c1-10.23,2-20.2,3-30.17.66-6.55,1.5-13.08,2-19.63.26-3.77,1-6.69,5.39-7.43a57.45,57.45,0,0,0,7.14-2.08l-.39,8.75Q830,365.79,830,371.29Z" transform="translate(-688.4 -332.4)"/><path class="cls-15" d="M841.65,472.45l-11.08.64c-.08-1.83-.16-3.67-.27-6-4,0-7.82,0-11.63,0-4.34,0-10.73-6.74-10.47-11.05a58.14,58.14,0,0,1,1-8.86,4,4,0,0,1,2.83-2.41,78.44,78.44,0,0,1,8.94,0c-.21,3.61-.41,7.22-.63,11.11,9,0,17.57,0,26.1,0,.52,0,1-.52,1.56-.81,1.7,3.7,3.39,7.4,5.48,12H842.07Z" transform="translate(-688.4 -332.4)"/><path class="cls-16" d="M861.41,455.91c-7.22-15.41-19.27-23.06-36.36-22.6-.86,0-1.73-.1-2.59-.16l.72-10.82c21.19-1.18,42.55,13.08,48.85,32.6Z" transform="translate(-688.4 -332.4)"/><path class="cls-17" d="M848.68,405c17,4.07,29.14,14.24,36.9,29.81a13.64,13.64,0,0,0,1.28,1.79L881,446.49c-8-15.9-20.15-26.75-37.44-32.78Z" transform="translate(-688.4 -332.4)"/><path class="cls-18" d="M953.24,455.86c.3,4-5.55,11.15-9.41,11.18-11.08.08-22.17,0-33.26,0a12.18,12.18,0,0,1-2.13-.65c1.76-3.88,3.45-7.6,5.15-11.33a12.55,12.55,0,0,0,3.07.84C928.85,455.92,941.05,455.88,953.24,455.86Z" transform="translate(-688.4 -332.4)"/><path class="cls-19" d="M913,682c-6.11-6.5-12.26-13-18.33-19.5-2.95-3.17-5.77-6.45-8.65-9.68,4.35-.05,8.7-.18,13-.08a5.28,5.28,0,0,1,3.25,1.3c6.52,6.31,12.93,12.74,19.87,19.62Z" transform="translate(-688.4 -332.4)"/><path class="cls-20" d="M953.24,455.86c-12.19,0-24.39.06-36.58,0a12.55,12.55,0,0,1-3.07-.84,23.56,23.56,0,0,1,19.95-10.42c5.35-.05,10.69.06,16-.05,2.08,0,2.91.73,3,2.76C952.69,450.18,953,453,953.24,455.86Z" transform="translate(-688.4 -332.4)"/><path class="cls-21" d="M876.24,652.84l-21,23.16-8.19-9.66c4.07-4.13,8.09-8.31,12.23-12.36a4.62,4.62,0,0,1,2.88-1.24C866.87,652.66,871.55,652.79,876.24,652.84Z" transform="translate(-688.4 -332.4)"/><path class="cls-22" d="M830.46,478.11q.07,11.91.16,23.83l-11,6.34V478.11Z" transform="translate(-688.4 -332.4)"/><path class="cls-23" d="M888.35,686.33l7.22,7.56c-4.73,2.79-9.05,5.41-13.47,7.87a3.25,3.25,0,0,1-2.71,0c-4.32-2.42-8.54-5-13.2-7.75l7.78-8.29c2.33,4.46,6.53,5.83,10.45,3.36C885.77,688.19,887,687.23,888.35,686.33Z" transform="translate(-688.4 -332.4)"/><path class="cls-20" d="M848,455c-.52.29-1,.81-1.56.81-8.53.06-17.06,0-26.1,0,.22-3.89.42-7.5.63-11.11,8.23-.7,16.21-.25,22.8,5.6A56.77,56.77,0,0,1,848,455Z" transform="translate(-688.4 -332.4)"/><path class="cls-24" d="M855.67,517.24c-8.1,7.94-20.81,7.79-27.79-.12A19.36,19.36,0,0,1,855.67,517.24Z" transform="translate(-688.4 -332.4)"/><path class="cls-24" d="M905.47,517.25c8.1-7.91,20.41-7.9,27.8-.13C926.75,525,914.09,525.17,905.47,517.25Z" transform="translate(-688.4 -332.4)"/><path class="cls-25" d="M823.18,422.33l-.72,10.82H810.54l1.11-10.82Z" transform="translate(-688.4 -332.4)"/><path class="cls-26" d="M861.41,455.91l10.62-1c1.12,3.86,2.25,7.71,3.48,11.92h-11.3C863.24,463.05,862.33,459.48,861.41,455.91Z" transform="translate(-688.4 -332.4)"/><path class="cls-27" d="M870.24,478.4h21.11L881,490Z" transform="translate(-688.4 -332.4)"/><path class="cls-26" d="M889.62,456.61l10.06.12-2.17,10H886.78Z" transform="translate(-688.4 -332.4)"/><path class="cls-14" d="M888.35,686.33c-1.31.9-2.58,1.86-3.93,2.7-3.92,2.47-8.12,1.1-10.45-3.36l7-7.88Z" transform="translate(-688.4 -332.4)"/><path class="cls-7" d="M838.1,644.51,835,646.93c-.77-3.49-1.45-6.52-2.12-9.56Z" transform="translate(-688.4 -332.4)"/><path class="cls-28" d="M863.75,371.19h-11v-10.9h11Z" transform="translate(-688.4 -332.4)"/><path class="cls-28" d="M830,371.29q0-5.51,0-11h11v11Z" transform="translate(-688.4 -332.4)"/><path class="cls-29" d="M858.22,629.57V619.09h44.86v11.16c-13.66,0-27.33,0-41-.09A24.64,24.64,0,0,1,858.22,629.57Z" transform="translate(-688.4 -332.4)"/></svg>