<?xml version="1.0" standalone="no"?>
<!DOCTYPE svg PUBLIC "-//W3C//DTD SVG 20010904//EN"
 "http://www.w3.org/TR/2001/REC-SVG-20010904/DTD/svg10.dtd">
<svg version="1.0" xmlns="http://www.w3.org/2000/svg"
 width="255.000000pt" height="147.000000pt" viewBox="0 0 255.000000 147.000000"
 preserveAspectRatio="xMidYMid meet">

<g transform="translate(0.000000,147.000000) scale(0.100000,-0.100000)"
fill="#00000" stroke="none">
<path d="M502 1153 c-6 -16 -11 -22 -11 -15 -1 6 -10 12 -21 12 -19 0 -20 -7
-20 -123 0 -68 3 -258 7 -423 l6 -299 155 -2 c119 -1 158 1 168 12 21 20 17
35 -8 36 l-23 0 21 11 c21 10 21 15 20 241 0 128 3 303 7 391 8 142 7 158 -7
153 -9 -4 -16 -2 -16 3 0 15 -52 11 -73 -4 -17 -13 -18 -38 -15 -380 l3 -366
-62 0 -63 0 0 304 c0 188 -4 307 -10 311 -6 3 -7 30 -3 65 4 42 2 60 -6 60 -6
0 -11 9 -11 20 0 30 -27 24 -38 -7z"/>
<path d="M990 1171 c0 -4 -11 -6 -25 -3 -22 4 -25 1 -25 -27 0 -26 -4 -31 -24
-31 l-23 0 -6 -332 c-4 -296 -3 -334 11 -345 14 -12 13 -13 -5 -13 -17 0 -23
-8 -28 -40 -11 -63 -8 -64 144 -57 175 9 182 11 177 51 -2 17 -4 38 -5 47 -1
13 -13 15 -82 11 l-81 -5 7 377 8 376 -22 0 c-11 0 -21 -4 -21 -9z"/>
<path d="M1612 1153 c-6 -16 -11 -22 -11 -15 -1 6 -10 12 -21 12 -19 0 -20 -7
-20 -123 0 -68 3 -258 7 -423 l6 -299 155 -2 c119 -1 158 1 168 12 21 20 17
35 -8 36 l-23 0 21 11 c21 10 21 15 20 241 0 128 3 303 7 391 8 142 7 158 -7
153 -9 -4 -16 -2 -16 3 0 15 -52 11 -73 -4 -17 -13 -18 -38 -15 -380 l3 -366
-62 0 -63 0 0 304 c0 188 -4 307 -10 311 -6 3 -7 30 -3 65 4 42 2 60 -6 60 -6
0 -11 9 -11 20 0 30 -27 24 -38 -7z"/>
<path d="M1210 1160 c0 -5 -7 -10 -15 -10 -11 0 -15 -12 -15 -45 l0 -45 57 0
56 0 -7 -360 c-6 -321 -5 -360 9 -360 9 0 15 -9 15 -25 0 -20 5 -25 25 -25 14
0 25 5 25 10 0 6 12 10 27 10 l26 0 -4 378 -4 377 51 3 c49 3 52 5 58 34 14
72 23 68 -149 68 -97 0 -155 -4 -155 -10z"/>
<path d="M2419 1098 c-1 -40 -3 -92 -4 -115 l-3 -43 39 0 c44 0 44 0 54 111 7
91 -4 119 -50 119 l-35 0 -1 -72z"/>
<path d="M71 1143 c-6 -10 -11 -12 -11 -5 0 19 -27 14 -32 -5 -3 -10 -2 -79 2
-153 4 -74 5 -252 2 -396 l-5 -261 39 -6 c21 -4 51 -7 67 -7 31 0 29 -18 27
234 l-1 158 44 -38 44 -38 6 -154 c3 -85 8 -156 11 -159 8 -8 113 -9 122 -1 4
5 1 88 -6 185 l-13 178 -69 65 -69 65 65 40 65 39 7 73 c8 91 -2 183 -21 183
-7 0 -15 5 -17 11 -2 6 -14 8 -31 4 -22 -6 -26 -11 -21 -31 4 -15 2 -24 -5
-24 -7 0 -11 -29 -11 -83 l0 -82 -45 -28 c-25 -15 -47 -27 -49 -27 -2 0 -7 52
-11 115 -4 63 -11 118 -16 121 -5 3 -9 14 -9 25 0 25 -45 26 -59 2z"/>
<path d="M2135 1153 c-98 -6 -135 -14 -135 -29 0 -8 -4 -14 -10 -14 -14 0 -13
-47 1 -52 11 -4 -1 -444 -16 -655 l-6 -73 41 0 c22 0 40 -4 40 -10 0 -5 7 -10
15 -10 10 0 15 10 15 29 0 17 5 33 10 36 6 3 10 52 10 111 0 80 3 105 13 102
6 -3 35 -67 63 -144 34 -93 55 -138 64 -136 7 2 17 -3 21 -9 7 -11 35 -4 96
26 1 1 -25 63 -58 139 -33 76 -59 140 -57 141 2 1 17 7 33 12 29 9 30 12 36
84 4 41 7 161 8 267 l1 192 -67 -2 c-38 -1 -90 -3 -118 -5z m81 -235 c-10
-218 -9 -213 -62 -228 -25 -7 -46 -11 -49 -9 -7 7 11 355 19 368 4 6 28 11 53
11 l45 0 -6 -142z"/>
</g>
</svg>
